<?xml version="1.0" encoding="UTF-8" standalone="no"?>
<!-- Created with Inkscape (http://www.inkscape.org/) -->

<svg
   xmlns:dc="http://purl.org/dc/elements/1.1/"
   xmlns:cc="http://creativecommons.org/ns#"
   xmlns:rdf="http://www.w3.org/1999/02/22-rdf-syntax-ns#"
   xmlns:svg="http://www.w3.org/2000/svg"
   xmlns="http://www.w3.org/2000/svg"
   xmlns:sodipodi="http://sodipodi.sourceforge.net/DTD/sodipodi-0.dtd"
   xmlns:inkscape="http://www.inkscape.org/namespaces/inkscape"
   width="500"
   height="392.3613"
   viewBox="0 0 500.00001 392.3613"
   id="svg2"
   version="1.1"
   inkscape:version="0.91 r13725"
   sodipodi:docname="easy.svg">
  <defs
     id="defs4" />
  <sodipodi:namedview
     id="base"
     pagecolor="#ffffff"
     bordercolor="#666666"
     borderopacity="1.0"
     inkscape:pageopacity="0.0"
     inkscape:pageshadow="2"
     inkscape:zoom="0.7"
     inkscape:cx="281.67928"
     inkscape:cy="183.51127"
     inkscape:document-units="px"
     inkscape:current-layer="layer1"
     showgrid="false"
     units="px"
     inkscape:window-width="1366"
     inkscape:window-height="715"
     inkscape:window-x="-8"
     inkscape:window-y="-8"
     inkscape:window-maximized="1"
     fit-margin-top="0"
     fit-margin-left="0"
     fit-margin-right="0"
     fit-margin-bottom="0" />
  <metadata
     id="metadata7">
    <rdf:RDF>
      <cc:Work
         rdf:about="">
        <dc:format>image/svg+xml</dc:format>
        <dc:type
           rdf:resource="http://purl.org/dc/dcmitype/StillImage" />
        <dc:title></dc:title>
      </cc:Work>
    </rdf:RDF>
  </metadata>
  <g
     inkscape:label="Layer 1"
     inkscape:groupmode="layer"
     id="layer1"
     transform="translate(0,4.9999999e-6)">
    <g
       style="font-style:normal;font-variant:normal;font-weight:500;font-stretch:normal;font-size:199.69360352px;line-height:125%;font-family:Roboto;-inkscape-font-specification:'Roboto Medium';letter-spacing:0px;word-spacing:0px;fill:#000000;fill-opacity:1;stroke:none;stroke-width:1px;stroke-linecap:butt;stroke-linejoin:miter;stroke-opacity:1"
       id="text4184">
      <path
         d="m 53.823666,392.3613 -23.694114,0 0,-120.12819 -30.12955211920929,0 0,-18.81878 L 53.823666,248.34399 l 0,144.01731 z"
         style=""
         id="path4203" />
    </g>
    <g
       style="font-style:normal;font-variant:normal;font-weight:500;font-stretch:normal;font-size:199.69360352px;line-height:125%;font-family:Roboto;-inkscape-font-specification:'Roboto Medium';letter-spacing:0px;word-spacing:0px;fill:#000000;fill-opacity:1;stroke:none;stroke-width:1px;stroke-linecap:butt;stroke-linejoin:miter;stroke-opacity:1"
       id="text4188">
      <path
         d="m 281.56648,273.49603 -91.55874,0 0,-16.28361 44.36552,-51.28849 q 10.82324,-12.77337 15.01602,-21.06144 4.19279,-8.28806 4.19279,-15.89358 0,-9.06812 -5.07035,-14.7235 -5.07034,-5.75289 -14.52849,-5.75289 -11.01825,0 -16.86864,7.11798 -5.8504,7.11799 -5.8504,17.94122 l -22.91406,0 -0.19502,-0.58504 q -0.48753,-18.23374 11.99332,-30.81209 12.57836,-12.67587 33.8348,-12.67587 20.37889,0 31.78717,10.92075 11.50578,10.92074 11.50578,28.66695 0,11.99332 -6.43543,22.52403 -6.33794,10.53072 -20.96393,28.17942 l -29.93454,34.32234 0.19501,0.48753 61.42919,0 0,18.91629 z"
         style=""
         id="path4200" />
    </g>
    <g
       style="font-style:normal;font-variant:normal;font-weight:500;font-stretch:normal;font-size:199.69360352px;line-height:125%;font-family:Roboto;-inkscape-font-specification:'Roboto Medium';letter-spacing:0px;word-spacing:0px;fill:#000000;fill-opacity:1;stroke:none;stroke-width:1px;stroke-linecap:butt;stroke-linejoin:miter;stroke-opacity:1"
       id="text4192">
      <path
         d="m 450.80111,243.50115 q 11.50578,0 16.57613,-5.7529 5.07034,-5.75289 5.07034,-16.08859 0,-9.26313 -5.46037,-15.01602 -5.46037,-5.8504 -15.79608,-5.8504 -9.55565,0 -15.89358,5.75289 -6.33793,5.65538 -6.33793,14.23597 l -22.71905,0 -0.19501,-0.58504 q -0.58504,-16.28361 12.38334,-27.30186 13.06589,-11.11576 32.76223,-11.11576 20.76892,0 32.76223,10.2382 12.09083,10.14069 12.09083,29.64202 0,9.75066 -5.36287,17.94122 -5.26536,8.09305 -14.7235,12.67586 10.82324,4.2903 16.57613,12.96839 5.75289,8.58058 5.75289,20.76891 0,19.59884 -13.1634,30.7146 -13.16339,11.11575 -33.93231,11.11575 -18.72127,0 -32.85974,-10.53071 -14.13846,-10.62823 -13.65093,-28.95948 l 0.19502,-0.58504 22.81655,0 q 0,8.97061 6.53295,15.11353 6.63045,6.04541 16.96615,6.04541 10.72573,0 17.06366,-6.33793 6.33794,-6.43544 6.33794,-16.47862 0,-12.09082 -5.94791,-18.03873 -5.8504,-5.9479 -17.84371,-5.9479 l -15.79608,0 0,-18.62377 15.79608,0 z"
         style=""
         id="path4197" />
    </g>
  </g>
</svg>
