<?xml version="1.0" encoding="UTF-8" standalone="no"?>
<!-- Created with Inkscape (http://www.inkscape.org/) -->

<svg
   xmlns:dc="http://purl.org/dc/elements/1.1/"
   xmlns:cc="http://creativecommons.org/ns#"
   xmlns:rdf="http://www.w3.org/1999/02/22-rdf-syntax-ns#"
   xmlns:svg="http://www.w3.org/2000/svg"
   xmlns="http://www.w3.org/2000/svg"
   xmlns:sodipodi="http://sodipodi.sourceforge.net/DTD/sodipodi-0.dtd"
   xmlns:inkscape="http://www.inkscape.org/namespaces/inkscape"
   width="500"
   height="392.3613"
   viewBox="0 0 500.00001 392.3613"
   id="svg2"
   version="1.1"
   inkscape:version="0.91 r13725"
   sodipodi:docname="engagement.svg">
  <defs
     id="defs4" />
  <sodipodi:namedview
     id="base"
     pagecolor="#ffffff"
     bordercolor="#666666"
     borderopacity="1.0"
     inkscape:pageopacity="0.0"
     inkscape:pageshadow="2"
     inkscape:zoom="0.98994949"
     inkscape:cx="228.69688"
     inkscape:cy="178.30747"
     inkscape:document-units="px"
     inkscape:current-layer="layer1"
     showgrid="false"
     units="px"
     inkscape:window-width="1366"
     inkscape:window-height="715"
     inkscape:window-x="-8"
     inkscape:window-y="-8"
     inkscape:window-maximized="1"
     fit-margin-top="0"
     fit-margin-left="0"
     fit-margin-right="0"
     fit-margin-bottom="0" />
  <metadata
     id="metadata7">
    <rdf:RDF>
      <cc:Work
         rdf:about="">
        <dc:format>image/svg+xml</dc:format>
        <dc:type
           rdf:resource="http://purl.org/dc/dcmitype/StillImage" />
        <dc:title></dc:title>
      </cc:Work>
    </rdf:RDF>
  </metadata>
  <g
     inkscape:label="Layer 1"
     inkscape:groupmode="layer"
     id="layer1"
     transform="translate(0,4.9999999e-6)">
    <path
       sodipodi:nodetypes="cccccsssccccsss"
       inkscape:connector-curvature="0"
       id="circle4211"
       d="m 334.86523,172.10547 c -23.11674,3.9e-4 -41.85615,18.74068 -41.85546,41.85742 3.8e-4,23.11597 18.73949,41.85508 41.85546,41.85547 23.11674,7e-4 41.85705,-18.73873 41.85743,-41.85547 6.9e-4,-23.11751 -18.73992,-41.85812 -41.85743,-41.85742 z m -0.97851,91.32422 c -16.6275,-0.0432 -28.65912,12.13766 -35.06445,23.71875 -6.40532,11.5811 -9.86978,20.60536 -12.36915,33.28711 -4.99869,25.3635 -5.39062,29.85156 -5.39062,29.85156 -0.19114,9.9242 7.80052,18.0732 17.72656,18.07422 l 69.54883,0 c 9.88493,-8.3e-4 17.86045,-8.08468 17.72852,-17.96875 0,0 -0.24732,-4.44678 -5.09766,-29.79492 -2.42516,-12.67407 -5.81414,-21.69929 -12.15625,-33.30078 -6.34212,-11.6015 -18.31435,-23.82405 -34.92578,-23.86719 z"
       style="opacity:1;fill:#000000;fill-opacity:1;fill-rule:nonzero;stroke:none;stroke-width:20;stroke-linecap:round;stroke-linejoin:round;stroke-miterlimit:4;stroke-dasharray:none;stroke-dashoffset:0;stroke-opacity:1" />
    <path
       style="opacity:1;fill:#000000;fill-opacity:1;fill-rule:nonzero;stroke:none;stroke-width:20;stroke-linecap:round;stroke-linejoin:round;stroke-miterlimit:4;stroke-dasharray:none;stroke-dashoffset:0;stroke-opacity:1"
       d="m 194.69522,154.93288 c -27.40018,4.6e-4 -49.61194,22.21326 -49.61112,49.61344 4.5e-4,27.39928 22.21184,49.61068 49.61112,49.61114 27.40018,8.2e-4 49.61301,-22.21095 49.61345,-49.61114 8.2e-4,-27.4011 -22.21235,-49.61427 -49.61345,-49.61344 z m -1.15983,108.24626 c -19.70851,-0.0512 -33.96955,14.38672 -41.56176,28.11375 -7.5922,13.72704 -11.69861,24.42346 -14.6611,39.45508 -5.92494,30.06327 -6.38949,35.38295 -6.38949,35.38295 -0.22655,11.76311 9.24593,21.4221 21.01123,21.42331 l 82.43597,0 c 11.71657,-9.8e-4 21.16993,-9.58275 21.01355,-21.29829 0,0 -0.29315,-5.27075 -6.04224,-35.31581 -2.87453,-15.02254 -6.89147,-25.72009 -14.40875,-39.47129 -7.51729,-13.75122 -21.70794,-28.23856 -41.39741,-28.2897 z"
       id="path4267"
       inkscape:connector-curvature="0"
       sodipodi:nodetypes="cccccsssccccsss" />
    <g
       id="g4231"
       style="fill:#ffffff;stroke:#000000;stroke-width:4.19999981;stroke-miterlimit:4;stroke-dasharray:none">
      <path
         style="color:#000000;font-style:normal;font-variant:normal;font-weight:normal;font-stretch:normal;font-size:medium;line-height:normal;font-family:sans-serif;text-indent:0;text-align:start;text-decoration:none;text-decoration-line:none;text-decoration-style:solid;text-decoration-color:#000000;letter-spacing:normal;word-spacing:normal;text-transform:none;direction:ltr;block-progression:tb;writing-mode:lr-tb;baseline-shift:baseline;text-anchor:start;white-space:normal;clip-rule:nonzero;display:inline;overflow:visible;visibility:visible;opacity:1;isolation:auto;mix-blend-mode:normal;color-interpolation:sRGB;color-interpolation-filters:linearRGB;solid-color:#000000;solid-opacity:1;fill:#000000;fill-opacity:1;fill-rule:nonzero;stroke:none;stroke-width:5.80000019;stroke-linecap:round;stroke-linejoin:round;stroke-miterlimit:4;stroke-dasharray:none;stroke-dashoffset:0;stroke-opacity:1;color-rendering:auto;image-rendering:auto;shape-rendering:auto;text-rendering:auto;enable-background:accumulate"
         d="m 270.7207,26.816401 c -38.61782,2.45e-4 -70.57935,24.888541 -70.58008,56.4375 a 2.9002901,2.9002901 0 0 0 0,0.0039 c 0.0341,30.323669 29.6586,54.514479 66.45899,56.228519 l 4.05273,23.84961 a 2.9002901,2.9002901 0 0 0 5.53125,0.64062 l 10.96094,-25.99804 c 31.3205,-5.9976 54.11562,-28.30519 54.15625,-54.720709 a 2.9002901,2.9002901 0 0 0 0,-0.0039 c -7.3e-4,-31.548962 -31.96225,-56.43726 -70.58008,-56.4375 z m 0,5.800782 c 36.13744,2.24e-4 64.7773,23.049154 64.7793,50.634765 -0.0373,23.476252 -20.91286,44.261512 -50.95508,49.404302 a 2.9002901,2.9002901 0 0 0 -2.18164,1.73242 l -7.6582,18.16797 -2.77344,-16.31445 a 2.9002901,2.9002901 0 0 0 -2.80273,-2.41407 c -35.48103,-0.68402 -63.15439,-23.48287 -63.1875,-50.574219 l 0,-0.002 c 0.002,-27.585608 28.64186,-50.634537 64.77929,-50.634765 z"
         id="path4223"
         inkscape:connector-curvature="0" />
    </g>
    <g
       style="font-style:normal;font-variant:normal;font-weight:normal;font-stretch:normal;font-size:84.0557251px;line-height:125%;font-family:'Material Icons';-inkscape-font-specification:'Material Icons';letter-spacing:0px;word-spacing:0px;fill:#000000;fill-opacity:1;stroke:none;stroke-width:1px;stroke-linecap:butt;stroke-linejoin:miter;stroke-opacity:1"
       id="text4227">
      <path
         d="m 265.49117,78.634064 q 2.13422,-2.134227 4.92514,-2.134227 2.79091,0 4.92514,2.134227 2.13422,2.134227 2.13422,4.92514 0,2.790913 -2.13422,4.92514 -2.13423,2.134228 -4.92514,2.134228 -2.79092,0 -4.92514,-2.134228 -2.13423,-2.134227 -2.13423,-4.92514 0,-2.790913 2.13423,-4.92514 z m 21.01393,0 q 2.13422,-2.134227 4.92514,-2.134227 2.79091,0 4.92514,2.134227 2.13422,2.134227 2.13422,4.92514 0,2.790913 -2.13422,4.92514 -2.13423,2.134228 -4.92514,2.134228 -2.79092,0 -4.92514,-2.134228 -2.13423,-2.134227 -2.13423,-4.92514 0,-2.790913 2.13423,-4.92514 z m -42.02787,0 q 2.13423,-2.134227 4.92514,-2.134227 2.79092,0 4.92514,2.134227 2.13423,2.134227 2.13423,4.92514 0,2.790913 -2.13423,4.92514 -2.13422,2.134228 -4.92514,2.134228 -2.79091,0 -4.92514,-2.134228 -2.13422,-2.134227 -2.13422,-4.92514 0,-2.790913 2.13422,-4.92514 z"
         style=""
         id="path4243" />
    </g>
  </g>
</svg>
