<?xml version="1.0" encoding="UTF-8" standalone="no"?>
<!-- Created with Inkscape (http://www.inkscape.org/) -->

<svg
   xmlns:dc="http://purl.org/dc/elements/1.1/"
   xmlns:cc="http://creativecommons.org/ns#"
   xmlns:rdf="http://www.w3.org/1999/02/22-rdf-syntax-ns#"
   xmlns:svg="http://www.w3.org/2000/svg"
   xmlns="http://www.w3.org/2000/svg"
   xmlns:sodipodi="http://sodipodi.sourceforge.net/DTD/sodipodi-0.dtd"
   xmlns:inkscape="http://www.inkscape.org/namespaces/inkscape"
   width="500"
   height="392.3613"
   viewBox="0 0 500.00001 392.3613"
   id="svg2"
   version="1.1"
   inkscape:version="0.91 r13725"
   sodipodi:docname="enhanced.svg">
  <defs
     id="defs4" />
  <sodipodi:namedview
     id="base"
     pagecolor="#ffffff"
     bordercolor="#666666"
     borderopacity="1.0"
     inkscape:pageopacity="0.0"
     inkscape:pageshadow="2"
     inkscape:zoom="0.35"
     inkscape:cx="200.77365"
     inkscape:cy="-156.9051"
     inkscape:document-units="px"
     inkscape:current-layer="layer1"
     showgrid="false"
     units="px"
     inkscape:window-width="1366"
     inkscape:window-height="715"
     inkscape:window-x="-8"
     inkscape:window-y="-8"
     inkscape:window-maximized="1"
     fit-margin-top="0"
     fit-margin-left="0"
     fit-margin-right="0"
     fit-margin-bottom="0" />
  <metadata
     id="metadata7">
    <rdf:RDF>
      <cc:Work
         rdf:about="">
        <dc:format>image/svg+xml</dc:format>
        <dc:type
           rdf:resource="http://purl.org/dc/dcmitype/StillImage" />
        <dc:title></dc:title>
      </cc:Work>
    </rdf:RDF>
  </metadata>
  <g
     inkscape:label="Layer 1"
     inkscape:groupmode="layer"
     id="layer1"
     transform="translate(0,4.9999999e-6)">
    <path
       inkscape:connector-curvature="0"
       style="fill:#000000;fill-opacity:1;stroke:#ffffff;stroke-width:0;stroke-linejoin:round;stroke-miterlimit:4;stroke-dasharray:none"
       d="M 150.21484,0 C 138.756,0 124.48164,1.7542281 113.70117,4.4863281 61.010617,17.839748 19.453016,59.397311 6.0996094,112.08789 c -10.194924,40.22765 -2.6768547,84.42019 20.1542966,118.48633 3.482135,5.19566 7.225398,10.11242 11.201172,14.75195 5.556466,-3.04387 11.022008,-5.16934 16.080078,-6.62695 -0.781487,-0.85345 -1.507376,-1.68754 -2.166015,-2.4961 -4.130224,-5.07025 -4.390018,-5.98572 -2.244141,-7.92773 1.271293,-1.1505 3.717668,-1.33582 17.566406,-1.32422 8.848741,0.007 16.520677,0.28724 17.048828,0.62305 0.528128,0.3358 1.939619,3.32846 3.136719,6.65039 0.380779,1.05666 0.778281,2.11903 1.183594,3.17969 3.951256,0.70747 7.925796,1.55525 11.664062,2.38672 2.308051,0.51336 2.223121,0.54739 4.189451,1.01953 0.2263,-2.16731 0.54823,-4.65516 0.92578,-7.27735 -0.88184,-2.96691 -0.73126,-4.58319 0.31055,-5.625 0.0815,-0.0815 0.31569,-0.15715 0.61328,-0.22851 0.94843,-5.34206 2.25314,-11.31606 4.07617,-17.74219 -9.03038,-0.0917 -11.618428,-0.38016 -12.398434,-1.16016 -2.14084,-2.14083 -5.064783,-18.64721 -6.939453,-39.17773 -1.19872,-13.1279 -3.312095,-12.11523 25.246097,-12.11523 9.347,0 15.48693,0.0786 19.3457,0.25976 6.65488,-8.95052 14.67205,-17.57677 24.2793,-25.33984 -0.62175,-13.14937 -0.39247,-42.316513 0.69531,-43.4043 1.41604,-1.41611 42.115,-1.379377 43.25586,0.03906 1.24272,1.545099 2.78151,9.204828 4.04687,18.05274 5.07048,-1.57852 10.37787,-2.95575 15.9336,-4.10742 -0.28469,-1.77536 -0.58604,-3.580699 -0.92578,-5.480476 -1.01335,-5.66647 -1.06672,-7.321452 -0.26368,-8.289062 0.85504,-1.03034 4.30344,-1.178834 23.29883,-0.996094 l 22.29492,0.214844 1.38868,2.826172 c 1.38149,2.812099 2.72779,5.997227 4.00195,9.386716 6.62303,0.84047 12.95929,2.14331 19.01172,3.83204 C 273.46659,44.180369 217.15946,0 150.21484,0 Z M 138.0332,20.150391 c 0.92228,0.0582 1.70899,0.388675 2.33008,1.009765 1.38324,1.38324 1.38324,46.749573 0,48.132813 -0.69157,0.69157 -5.77595,0.96875 -17.75,0.96875 l -16.7793,0 L 104.5,68.226562 c -1.24362,-1.897979 -1.23743,-2.291225 0.084,-5.853515 2.95101,-7.95555 11.22387,-22.842636 16.16993,-29.097656 6.73196,-8.51352 13.28275,-13.37719 17.27929,-13.125 z m 24.35352,0.146484 c 1.58585,-0.0672 3.54006,0.92292 6.61523,3.125 8.5324,6.10992 17.8504,19.367491 24.06641,34.244141 3.50383,8.38567 3.79746,10.249425 1.91211,12.134765 -1.07061,1.07061 -3.84171,1.269531 -17.71094,1.269531 -13.86923,0 -16.63837,-0.198921 -17.70898,-1.269531 -1.09389,-1.09388 -1.26953,-4.422105 -1.26953,-24.103515 0,-21.09559 0.11208,-22.935082 1.47656,-24.169922 0.84894,-0.76828 1.66763,-1.190139 2.61914,-1.230469 z m 40.54883,7.970703 c 2.83273,0 17.25445,8.139438 25.78711,14.554688 11.14102,8.37631 23.25195,20.882608 23.25195,24.011718 0,1.26366 -0.43573,2.734559 -0.96875,3.267578 -1.40735,1.40743 -34.04167,1.369265 -35.19531,-0.04102 -0.45417,-0.55522 -2.16716,-4.644078 -3.80664,-9.085938 -1.63946,-4.44185 -5.36988,-12.886265 -8.29102,-18.765625 -5.18595,-10.4377 -5.27694,-10.728446 -3.83984,-12.316406 0.80949,-0.8945 2.18723,-1.625 3.0625,-1.625 z M 97.914062,28.34375 c 0.861446,0.0174 1.49977,0.323998 2.06836,0.892578 1.722068,1.72208 1.061078,4.022931 -4.230469,14.744141 -2.85936,5.79335 -6.326178,13.785295 -7.705078,17.759765 -1.37892,3.97447 -2.900789,7.700857 -3.380859,8.279297 -1.20235,1.4487 -33.797684,1.524631 -35.240235,0.08203 -2.348038,-2.34802 -1.08833,-5.361656 4.859375,-11.623046 10.444793,-10.99565 24.333618,-21.461617 36.75,-27.691407 3.387288,-1.69953 5.443166,-2.472339 6.878906,-2.443359 z M 118.5918,87.943359 c 10.49702,-0.0313 21.02593,0.311081 21.77148,1.056641 1.38483,1.38482 1.38483,49.16987 0,50.55469 -0.70865,0.70866 -7.18719,0.9707 -24.10351,0.9707 -28.866234,0 -26.467503,1.41916 -25.142582,-14.87891 1.092089,-13.43394 4.555561,-34.911274 5.888671,-36.517574 0.62215,-0.74961 11.088911,-1.154207 21.585941,-1.185547 z m -51.199222,0.19336 c 9.23012,0.004 10.270875,0.317552 11.240234,1.388672 1.160108,1.28192 1.245333,2.097168 0.548829,5.205078 -1.522765,6.794921 -3.171797,19.447911 -4.126953,31.662111 -0.52104,6.66279 -1.312049,12.5678 -1.757813,13.12304 -0.617302,0.76886 -6.837894,1.00977 -26.09375,1.00977 -29.806268,0 -28.33513,0.42983 -27.46875,-8.02734 1.140548,-11.13342 5.228753,-25.78494 10.607422,-38.007816 l 2.666015,-6.05664 22.125,-0.214844 c 5.197346,-0.0504 9.18306,-0.08343 12.259766,-0.08203 z m -46.429687,69.347661 25.357421,0 c 22.109894,0 25.494061,0.16254 26.416016,1.27343 0.65764,0.79239 1.302291,5.14117 1.703125,11.5 0.706859,11.2145 1.731875,19.78805 3.53125,29.51367 1.441542,7.79159 1.446553,7.39916 -0.09375,8.93946 -1.089656,1.08966 -4.2858,1.26758 -22.595703,1.26758 -24.85399,0 -21.7106,1.38736 -26.970703,-11.89454 -5.870025,-14.82195 -10.103681,-34.55179 -8.275391,-38.56445 l 0.927735,-2.03515 z"
       id="path4147" />
    <path
       inkscape:connector-curvature="0"
       id="path4157"
       d="m 259.71094,98.35156 c -10.26952,-0.29891 -21.15697,0.49891 -32.66602,2.63086 -61.1687,11.331 -93.23132,49.5774 -108.67578,84.16602 -9.88308,22.13365 -13.17558,42.15979 -14.45508,54.41406 -1.96633,-0.47214 -1.8814,-0.50617 -4.189451,-1.01953 -8.448893,-1.87921 -18.108642,-3.88113 -25.964843,-4.01953 -8.376953,-0.14758 -25.329093,1.90866 -42.03711,13.00976 C 15.01464,258.63431 -3.8073533e-6,279.79927 0,313.26953 c 2.7470537e-6,33.80887 17.166346,54.84457 35.527344,65.45707 18.360998,10.6124 36.991925,12.2597 44.939453,12.2597 l 325.978513,1.375 0.0195,0 c 4.60733,0 10.31666,-0.9982 19.26758,-3.6211 8.95093,-2.6228 19.99816,-6.9446 30.95313,-13.9765 C 478.59548,360.6999 500,334.68193 500,293.32422 500,252.0826 479.35414,224.96416 454.95898,210.92188 434.02018,198.86913 411.10585,195.30073 393.33789,197.78516 388.45665,186.78794 377.65239,165.4393 358.76562,144.99609 337.11517,121.56144 304.21217,99.64684 259.71094,98.35156 Z m -0.36328,19.12696 c 38.83358,0.89641 66.00318,19.72568 85.27343,40.58398 23.71724,25.67175 33.86133,53.90234 33.86133,53.90234 l 3.01563,8.45704 8.64648,-2.41797 c 11.37381,-3.17986 35.65741,-1.64682 55.20899,9.60742 19.55158,11.25424 35.38867,30.60605 35.38867,65.71289 0,34.99071 -16.46003,53.67908 -34.45899,65.23238 -8.99947,5.7767 -18.41668,9.4914 -25.96484,11.7032 -7.54632,2.2112 -14.36648,2.8454 -13.85156,2.8457 l -325.978519,-1.377 -0.02148,0 c -4.594483,0 -21.379704,-1.6264 -35.302735,-9.6738 -13.92303,-8.0474 -25.906247,-21.0574 -25.90625,-48.78517 -3e-6,-28.06641 10.887676,-41.56721 23.121094,-49.69531 12.233418,-8.1281 27.260729,-9.86347 31.041016,-9.79688 4.301038,0.0758 14.126118,1.78577 22.123047,3.56446 7.996927,1.77868 14.517577,3.52929 14.517577,3.52929 l 12.10937,3.25586 0.0195,-12.53906 c 0,0 0.10091,-27.9914 13.76367,-58.58984 13.66277,-30.59844 39.71944,-62.91398 94.59961,-73.08008 10.25012,-1.89875 19.83333,-2.64632 28.79493,-2.43945 z" />
  </g>
</svg>
