<?xml version="1.0" encoding="UTF-8" standalone="no"?>
<!-- Created with Inkscape (http://www.inkscape.org/) -->

<svg
   xmlns:dc="http://purl.org/dc/elements/1.1/"
   xmlns:cc="http://creativecommons.org/ns#"
   xmlns:rdf="http://www.w3.org/1999/02/22-rdf-syntax-ns#"
   xmlns:svg="http://www.w3.org/2000/svg"
   xmlns="http://www.w3.org/2000/svg"
   xmlns:sodipodi="http://sodipodi.sourceforge.net/DTD/sodipodi-0.dtd"
   xmlns:inkscape="http://www.inkscape.org/namespaces/inkscape"
   width="500"
   height="400"
   viewBox="0 0 500.00001 400.00001"
   id="svg5317"
   version="1.1"
   inkscape:version="0.91 r13725"
   sodipodi:docname="schedule.svg">
  <defs
     id="defs5319" />
  <sodipodi:namedview
     id="base"
     pagecolor="#ffffff"
     bordercolor="#666666"
     borderopacity="1.0"
     inkscape:pageopacity="0.0"
     inkscape:pageshadow="2"
     inkscape:zoom="0.98994949"
     inkscape:cx="162.43675"
     inkscape:cy="210.19073"
     inkscape:document-units="px"
     inkscape:current-layer="layer1"
     showgrid="false"
     units="px"
     inkscape:window-width="1366"
     inkscape:window-height="715"
     inkscape:window-x="-8"
     inkscape:window-y="-8"
     inkscape:window-maximized="1" />
  <metadata
     id="metadata5322">
    <rdf:RDF>
      <cc:Work
         rdf:about="">
        <dc:format>image/svg+xml</dc:format>
        <dc:type
           rdf:resource="http://purl.org/dc/dcmitype/StillImage" />
        <dc:title></dc:title>
      </cc:Work>
    </rdf:RDF>
  </metadata>
  <g
     inkscape:label="Layer 1"
     inkscape:groupmode="layer"
     id="layer1"
     transform="translate(0,-652.36218)">
    <path
       style="fill:#000000"
       inkscape:connector-curvature="0"
       d="m 309.47618,874.66819 -54.90476,0 0,54.90476 54.90476,0 z m -7.38095,-153.19047 0,26.76191 -107.04762,0 0,-26.76191 -26.7619,0 0,26.76191 -13.38095,0 c -14.85286,0 -26.6281,12.04285 -26.6281,26.7619 l -0.13381,187.33333 c 0,14.71905 11.90905,26.7619 26.76191,26.7619 l 187.33332,0 c 14.71905,0 26.76191,-12.04285 26.76191,-26.7619 l 0,-187.33333 c 0,-14.71905 -12.04286,-26.7619 -26.76191,-26.7619 l -13.38095,0 0,-26.76191 z m 46.14285,246.85714 -199.33332,0 0,-167.19047 199.33332,0 z"
       id="path5873"
       sodipodi:nodetypes="cccccccccccsccssssscccccccc" />
  </g>
</svg>
