<?xml version="1.0" encoding="UTF-8" standalone="no"?>
<!-- Created with Inkscape (http://www.inkscape.org/) -->

<svg
   xmlns:dc="http://purl.org/dc/elements/1.1/"
   xmlns:cc="http://creativecommons.org/ns#"
   xmlns:rdf="http://www.w3.org/1999/02/22-rdf-syntax-ns#"
   xmlns:svg="http://www.w3.org/2000/svg"
   xmlns="http://www.w3.org/2000/svg"
   xmlns:sodipodi="http://sodipodi.sourceforge.net/DTD/sodipodi-0.dtd"
   xmlns:inkscape="http://www.inkscape.org/namespaces/inkscape"
   width="500"
   height="400"
   viewBox="0 0 500.00001 400.00001"
   id="svg4676"
   version="1.1"
   inkscape:version="0.91 r13725"
   sodipodi:docname="updated.svg">
  <defs
     id="defs4678" />
  <sodipodi:namedview
     id="base"
     pagecolor="#ffffff"
     bordercolor="#666666"
     borderopacity="1.0"
     inkscape:pageopacity="0.0"
     inkscape:pageshadow="2"
     inkscape:zoom="0.35"
     inkscape:cx="-112.14286"
     inkscape:cy="520"
     inkscape:document-units="px"
     inkscape:current-layer="layer1"
     showgrid="false"
     units="px"
     inkscape:window-width="1366"
     inkscape:window-height="715"
     inkscape:window-x="-8"
     inkscape:window-y="-8"
     inkscape:window-maximized="1" />
  <metadata
     id="metadata4681">
    <rdf:RDF>
      <cc:Work
         rdf:about="">
        <dc:format>image/svg+xml</dc:format>
        <dc:type
           rdf:resource="http://purl.org/dc/dcmitype/StillImage" />
        <dc:title></dc:title>
      </cc:Work>
    </rdf:RDF>
  </metadata>
  <g
     inkscape:label="Layer 1"
     inkscape:groupmode="layer"
     id="layer1"
     transform="translate(0,-652.36217)">
    <path
       id="path4648"
       d="m 381.58299,777.98824 -74.37396,74.37397 55.78047,0 c 0,61.54445 -50.01649,111.56094 -111.56094,111.56094 -18.77942,0 -36.62917,-4.64837 -52.06177,-13.01544 L 172.2203,978.0542 c 22.87,14.50292 50.01648,23.0559 79.20826,23.0559 82.18323,0 148.74792,-66.56466 148.74792,-148.74789 l 55.78047,0 -74.37396,-74.37397 z m -241.71535,74.37397 c 0,-61.54447 50.01648,-111.56095 111.56092,-111.56095 18.77943,0 36.62918,4.64837 52.06177,13.01544 l 27.1465,-27.1465 c -22.86999,-14.50292 -50.01649,-23.05592 -79.20827,-23.05592 -82.18322,0 -148.7479,66.56469 -148.7479,148.74793 l -55.780473,0 74.373963,74.37396 74.37395,-74.37396 -55.78046,0 z"
       inkscape:connector-curvature="0"
       style="fill:#000000;stroke:none" />
  </g>
</svg>
