<?xml version="1.0" encoding="UTF-8" standalone="no"?>
<!-- Created with Inkscape (http://www.inkscape.org/) -->

<svg
   xmlns:dc="http://purl.org/dc/elements/1.1/"
   xmlns:cc="http://creativecommons.org/ns#"
   xmlns:rdf="http://www.w3.org/1999/02/22-rdf-syntax-ns#"
   xmlns:svg="http://www.w3.org/2000/svg"
   xmlns="http://www.w3.org/2000/svg"
   xmlns:sodipodi="http://sodipodi.sourceforge.net/DTD/sodipodi-0.dtd"
   xmlns:inkscape="http://www.inkscape.org/namespaces/inkscape"
   width="135mm"
   height="135mm"
   viewBox="0 0 478.34646 478.34646"
   id="svg2"
   version="1.1"
   inkscape:version="0.91 r13725"
   sodipodi:docname="Why.svg">
  <defs
     id="defs4">
    <clipPath
       clipPathUnits="userSpaceOnUse"
       id="clipPath4437">
      <rect
         style="fill:#784421;fill-opacity:1;stroke:none;stroke-width:0.1;stroke-linecap:round;stroke-linejoin:miter;stroke-miterlimit:4;stroke-dasharray:none;stroke-dashoffset:0;stroke-opacity:1"
         id="rect4439"
         width="16.5625"
         height="27.5625"
         x="51.224358"
         y="578.04797"
         transform="matrix(0.88797014,0.45990111,-0.45990111,0.88797014,0,0)" />
    </clipPath>
    <clipPath
       clipPathUnits="userSpaceOnUse"
       id="clipPath4588">
      <path
         sodipodi:nodetypes="czcczcc"
         inkscape:connector-curvature="0"
         id="path4590"
         d="m -357.74651,409.39504 c 0,0 5.56845,-17.5009 11.66725,-25.98618 6.0988,-8.48528 18.91511,-14.14213 18.91511,-14.14213 l 40.48186,0.61872 c 0,0 8.71992,1.35554 18.11962,11.22532 9.39969,9.86978 12.28598,28.10749 12.28598,28.10749 z"
         style="fill:#48b0d3;fill-opacity:1;fill-rule:evenodd;stroke:none;stroke-width:1px;stroke-linecap:butt;stroke-linejoin:miter;stroke-opacity:1" />
    </clipPath>
    <clipPath
       clipPathUnits="userSpaceOnUse"
       id="clipPath4611">
      <rect
         style="fill:#7c5e54;fill-opacity:1;stroke:none;stroke-width:0.1;stroke-linecap:round;stroke-linejoin:miter;stroke-miterlimit:4;stroke-dasharray:none;stroke-dashoffset:0;stroke-opacity:1"
         id="rect4613"
         width="103.75"
         height="47.75"
         x="-3.5"
         y="259.86221" />
    </clipPath>
  </defs>
  <sodipodi:namedview
     id="base"
     pagecolor="#ffffff"
     bordercolor="#666666"
     borderopacity="1.0"
     inkscape:pageopacity="0.0"
     inkscape:pageshadow="2"
     inkscape:zoom="2.8284272"
     inkscape:cx="14.2425"
     inkscape:cy="224.91731"
     inkscape:document-units="px"
     inkscape:current-layer="layer1"
     showgrid="false"
     inkscape:window-width="1366"
     inkscape:window-height="715"
     inkscape:window-x="-8"
     inkscape:window-y="-8"
     inkscape:window-maximized="1"
     showguides="true"
     inkscape:guide-bbox="true"
     fit-margin-top="0"
     fit-margin-left="0"
     fit-margin-right="0"
     fit-margin-bottom="0">
    <sodipodi:guide
       position="826.91846,311.91837"
       orientation="1,0"
       id="guide4232" />
    <sodipodi:guide
       position="239.17323,239.17323"
       orientation="1,0"
       id="guide4218"
       inkscape:label=""
       inkscape:color="rgb(0,0,255)" />
  </sodipodi:namedview>
  <metadata
     id="metadata7">
    <rdf:RDF>
      <cc:Work
         rdf:about="">
        <dc:format>image/svg+xml</dc:format>
        <dc:type
           rdf:resource="http://purl.org/dc/dcmitype/StillImage" />
        <dc:title />
      </cc:Work>
    </rdf:RDF>
  </metadata>
  <g
     inkscape:label="Layer 1"
     inkscape:groupmode="layer"
     id="layer1"
     transform="translate(-118.79582,-189.50553)">
    <g
       id="circs"
       inkscape:transform-center-x="4.9497475"
       inkscape:transform-center-y="-2.8284271">
      <circle
         transform="translate(118.79582,189.50553)"
         class="why-cir"
         r="47"
         cy="107.34647"
         cx="163"
         id="path4304"
         style="fill:#0066ee;fill-opacity:1;stroke:none;stroke-width:0.30000001;stroke-linecap:round;stroke-linejoin:round;stroke-miterlimit:4;stroke-dasharray:none;stroke-dashoffset:0;stroke-opacity:1" />
      <circle
         transform="translate(118.79582,189.50553)"
         class="why-cir"
         r="59.5"
         cy="158.84647"
         cx="390.5"
         id="path4310"
         style="fill:#0066ee;fill-opacity:1;stroke:none;stroke-width:0.30000001;stroke-linecap:round;stroke-linejoin:round;stroke-miterlimit:4;stroke-dasharray:none;stroke-dashoffset:0;stroke-opacity:1" />
      <circle
         transform="translate(118.79582,189.50553)"
         class="why-cir"
         r="47"
         cy="366.34647"
         cx="355"
         id="path4308"
         style="fill:#0066ee;fill-opacity:1;stroke:none;stroke-width:0.30000001;stroke-linecap:round;stroke-linejoin:round;stroke-miterlimit:4;stroke-dasharray:none;stroke-dashoffset:0;stroke-opacity:1" />
      <circle
         transform="translate(118.79582,189.50553)"
         class="why-cir"
         r="54.5"
         cy="297.84647"
         cx="78.5"
         id="path4306"
         style="fill:#0066ee;fill-opacity:1;stroke:none;stroke-width:0.30000001;stroke-linecap:round;stroke-linejoin:round;stroke-miterlimit:4;stroke-dasharray:none;stroke-dashoffset:0;stroke-opacity:1" />
      <g
         id="g4279"
         class="pic why-cir">
        <g
           transform="matrix(0.31796104,0,0,0.31796104,280.0767,188.96814)"
           id="g4623">
          <rect
             style="fill:#e6c5a0;fill-opacity:1;stroke:none;stroke-width:0.1;stroke-linecap:round;stroke-linejoin:miter;stroke-miterlimit:4;stroke-dasharray:none;stroke-dashoffset:0;stroke-opacity:1"
             id="rect4615"
             width="22.804193"
             height="35.001785"
             x="35.216251"
             y="353.56393" />
          <ellipse
             style="fill:#ffddb8;fill-opacity:1;stroke:none;stroke-width:0.1;stroke-linecap:round;stroke-linejoin:miter;stroke-miterlimit:4;stroke-dasharray:none;stroke-dashoffset:0;stroke-opacity:1"
             id="path4603"
             cx="46.377995"
             cy="323.00119"
             rx="31.339409"
             ry="37.142712" />
          <ellipse
             style="fill:#7c5e54;fill-opacity:1;stroke:none;stroke-width:0.1;stroke-linecap:round;stroke-linejoin:miter;stroke-miterlimit:4;stroke-dasharray:none;stroke-dashoffset:0;stroke-opacity:1"
             id="path4605"
             cx="47.72971"
             cy="291.86884"
             rx="24.041628"
             ry="23.334524"
             clip-path="url(#clipPath4611)" />
          <path
             style="fill:#7c5e54;fill-opacity:1;fill-rule:evenodd;stroke:none;stroke-width:1px;stroke-linecap:butt;stroke-linejoin:miter;stroke-opacity:1"
             d="m 70.878679,341.89667 c 0,0 5.081258,-10.33028 1.237437,-11.66726 -28.461047,-9.8995 -34.294678,-19.97577 -34.294678,-19.97577 -7.019691,9.42366 -21.243953,14.62396 -15.909903,31.28947 -2.86087,-5.23319 -8.223533,-8.88629 -2.65165,-19.44543 -0.188826,-2.90655 -2.426474,-2.3984 -3.889087,-3.18198 0,0 -0.930398,-30.9758 29.875261,-30.58237 30.805659,0.39344 32.173358,30.05204 32.173358,30.05204 0,0 -4.993942,1.14905 -5.303301,3.88909 -0.264599,2.3436 8.662058,8.48528 -1.237437,19.62221 z"
             id="path4607"
             inkscape:connector-curvature="0"
             sodipodi:nodetypes="cscccczcsc" />
          <path
             style="fill:#5ea376;fill-opacity:1;fill-rule:evenodd;stroke:none;stroke-width:1px;stroke-linecap:butt;stroke-linejoin:miter;stroke-opacity:1"
             d="m 1.5624998,407.73721 c 0,0 4.86359,-17.02968 8.4375,-21.875 C 14.883883,379.24089 33,370.36221 33,370.36221 l 6.5,11 7.25,-4.25 12,3 1.176777,-9.85355 c 0,0 14.073223,7.10355 18.073223,9.85355 4,2.75 13.5,28 13.5,28 z"
             id="path4617"
             inkscape:connector-curvature="0"
             sodipodi:nodetypes="cscccccscc" />
          <path
             style="fill:#8dd0a7;fill-opacity:1;fill-rule:evenodd;stroke:none;stroke-width:1px;stroke-linecap:butt;stroke-linejoin:miter;stroke-opacity:1"
             d="m 35.215882,367.2006 c 0,0 1.308058,10.23483 12.058058,9.85983 10.75,-0.375 10.728553,-10.00628 10.728553,-10.00628 2.538132,0.23074 10.678566,6.94379 3.771447,14.13128 -6.907119,7.18749 -14.608374,-0.94403 -14.5,-4.25 0,0 -4.987855,13.09979 -14.25,6.625 -9.262145,-6.47479 2.191942,-16.35983 2.191942,-16.35983 z"
             id="path4621"
             inkscape:connector-curvature="0"
             sodipodi:nodetypes="csczczc" />
        </g>
        <g
           transform="matrix(1.0557299,0,0,1.0557299,-29.202813,-71.588569)"
           id="g4725">
          <g
             transform="matrix(0.44267396,0,0,0.44267396,590.4336,294.62397)"
             id="g4698">
            <g
               id="g4700"
               transform="translate(-310.5,19.5)">
              <rect
                 y="108.86221"
                 x="-391.36038"
                 height="27"
                 width="18"
                 id="rect4702"
                 style="fill:#e7c49c;fill-opacity:1;stroke:none;stroke-width:0.1;stroke-linecap:round;stroke-linejoin:miter;stroke-miterlimit:4;stroke-dasharray:none;stroke-dashoffset:0;stroke-opacity:1" />
              <path
                 sodipodi:nodetypes="zccccccz"
                 inkscape:connector-curvature="0"
                 id="path4704"
                 d="m -382.65328,118.86221 c 21.33105,-0.1473 26.5,-24.5 26.5,-24.5 5.33758,-1.11728 7.29841,-10.746609 4.30936,-13.247398 l -16.80936,-24.752602 -29.75,8.75 -10.65181,15.862056 c -3.57884,0.535986 1.43092,14.398387 2.75,11.75 0,0 2.32075,26.285244 23.65181,26.137944 z"
                 style="fill:#ffddb8;fill-opacity:1;fill-rule:evenodd;stroke:none;stroke-width:1px;stroke-linecap:butt;stroke-linejoin:miter;stroke-opacity:1" />
              <path
                 sodipodi:nodetypes="csccczccc"
                 inkscape:connector-curvature="0"
                 id="path4706"
                 d="m -378.84038,65.39324 c 2.39421,0.106324 -0.6731,6.622134 -0.6731,6.622134 7.58403,0.665216 10.99578,-9.119904 10.99578,-9.119904 6.2512,6.07191 10.24597,13.37461 11.31371,22.27386 1.63357,-1.90957 2.71563,-5.28981 5.65685,-3.71231 -0.52542,-7.22224 -4.82834,-17.229503 -10.07627,-22.27386 -5.24793,-5.044357 -5.39387,-5.229301 -10.07627,-7.07107 -19.21884,-5.84881 -37.45394,6.96311 -37.65344,28.99138 7.8859,12.465991 3.54943,-16.264404 30.51274,-15.71023 z"
                 style="fill:#975139;fill-opacity:1;fill-rule:evenodd;stroke:none;stroke-width:1px;stroke-linecap:butt;stroke-linejoin:miter;stroke-opacity:1" />
            </g>
            <path
               style="fill:#008080;fill-opacity:1;fill-rule:evenodd;stroke:none;stroke-width:1px;stroke-linecap:butt;stroke-linejoin:miter;stroke-opacity:1"
               d="m -701.875,143.11221 c 4.50969,8.38041 13.28817,8.53434 18.12877,-0.1526 0,0 13.50767,5.47679 17.92808,9.45268 4.42041,3.97589 10.38539,21.21655 10.38539,21.21655 l -72.97349,0.0771 c 0,0 4.97221,-14.75499 8.35134,-19.65159 3.37912,-4.89661 18.17991,-10.94214 18.17991,-10.94214 z"
               id="path4708"
               inkscape:connector-curvature="0"
               sodipodi:nodetypes="cczcczc" />
          </g>
          <path
             style="fill:#7e5e4d;fill-opacity:1;fill-rule:evenodd;stroke:none;stroke-width:1px;stroke-linecap:butt;stroke-linejoin:miter;stroke-opacity:1"
             d="m 278.61714,339.4772 c -2.01119,0.0438 -3.97867,0.26234 -3.97867,0.26234 0,0 -0.21861,1.26792 0.26232,1.2242 0.48095,-0.0438 0.52466,1.04932 0.65582,2.01121 0.14289,1.04778 1.61772,2.75446 3.54148,2.8419 1.92374,0.0875 3.41028,-1.57398 3.71634,-2.75447 0.30605,-1.18048 0.49796,-1.39909 1.08894,-1.39909 0.59098,0 0.78289,0.21861 1.08894,1.39909 0.30607,1.18049 1.7926,2.84191 3.71634,2.75447 1.92376,-0.0874 3.39859,-1.79412 3.54148,-2.8419 0.13116,-0.96189 0.17487,-2.05492 0.65582,-2.01121 0.48093,0.0438 0.26232,-1.2242 0.26232,-1.2242 0,0 -1.96748,-0.21861 -3.97867,-0.26234 -2.0112,-0.0438 -4.65637,0.91816 -4.94057,0.91816 l -0.69132,0 c -0.2842,0 -2.92937,-0.96187 -4.94057,-0.91816 z m 1.01311,0.60528 c 1.9522,0.008 3.15623,0.68508 3.05369,2.01802 -0.10936,1.4218 -1.6177,3.14797 -3.27912,3.23541 -1.66142,0.0875 -2.97308,-1.26792 -3.06053,-3.06052 -0.0874,-1.79259 0.69955,-2.09864 2.88564,-2.18608 0.13664,-0.005 0.27018,-0.008 0.40032,-0.007 z m 8.72113,0 c 0.13014,-3.5e-4 0.26369,0.002 0.40031,0.007 2.1861,0.0874 2.97308,0.39351 2.88564,2.1861 -0.0875,1.79259 -1.3991,3.14796 -3.06052,3.06052 -1.66143,-0.0875 -3.16976,-1.81361 -3.27913,-3.23542 -0.10254,-1.33294 1.10149,-2.01051 3.0537,-2.01802 z"
             id="path4564-0"
             inkscape:connector-curvature="0" />
        </g>
      </g>
      <g
         id="g4526"
         class="pic why-cir">
        <g
           id="g4460"
           class=""
           transform="matrix(2.7164399,0,0,2.7164399,1124.3713,-1142.8299)">
          <rect
             y="547.66473"
             x="-236.94325"
             height="11.111702"
             width="20.897524"
             id="rect4280"
             style="fill:#e48b4c;fill-opacity:1;stroke:none;stroke-width:25;stroke-linecap:round;stroke-linejoin:round;stroke-miterlimit:4;stroke-dasharray:none;stroke-dashoffset:0;stroke-opacity:1" />
          <g
             transform="matrix(0.53642241,0,0,0.53642241,-103.871,253.01314)"
             id="g4294">
            <path
               sodipodi:nodetypes="cccccc"
               style="fill:#e48b4c;fill-opacity:1;fill-rule:evenodd;stroke:none;stroke-width:1px;stroke-linecap:butt;stroke-linejoin:miter;stroke-opacity:1"
               d="m -228.61015,537.55971 8.19988,4.73859 -0.008,7.26048 -16.40359,0 0.002,-7.26048 z"
               id="path4290"
               inkscape:connector-curvature="0" />
          </g>
          <path
             inkscape:connector-curvature="0"
             id="path4301"
             d="m -226.52482,540.80359 0,-3.44714"
             style="fill:#999999;fill-rule:evenodd;stroke:#999999;stroke-width:0.2;stroke-linecap:round;stroke-linejoin:miter;stroke-miterlimit:4;stroke-dasharray:none;stroke-opacity:1" />
          <path
             inkscape:connector-curvature="0"
             id="path4299"
             d="m -231.645,543.57521 5.14481,-2.97035 5.00531,2.88981"
             style="fill:none;fill-opacity:0;fill-rule:evenodd;stroke:#b36c39;stroke-width:1px;stroke-linecap:butt;stroke-linejoin:miter;stroke-opacity:1" />
          <rect
             y="537.67468"
             x="-226.54688"
             height="1.0625"
             width="1.7191612"
             id="rect4303"
             style="fill:#d40000;fill-opacity:1;stroke:#d40000;stroke-width:0.2;stroke-linecap:round;stroke-linejoin:miter;stroke-miterlimit:4;stroke-dasharray:none;stroke-dashoffset:0;stroke-opacity:1" />
          <g
             transform="translate(0.1875,-0.0625)"
             id="g4309">
            <circle
               style="fill:#ffffff;fill-opacity:1;stroke:#e48b4c;stroke-width:0.28297681;stroke-linecap:round;stroke-linejoin:miter;stroke-miterlimit:4;stroke-dasharray:none;stroke-dashoffset:0;stroke-opacity:1"
               id="path4305"
               cx="-226.70645"
               cy="544.13037"
               r="1.5917445" />
            <path
               style="fill:none;fill-rule:evenodd;stroke:#e48b4c;stroke-width:0.1;stroke-linecap:butt;stroke-linejoin:miter;stroke-miterlimit:4;stroke-dasharray:none;stroke-opacity:1"
               d="m -226.64982,543.26742 0,0.90598 0.54138,0.54138"
               id="path4307"
               inkscape:connector-curvature="0" />
          </g>
          <rect
             y="549.78607"
             x="-234.23669"
             height="2.1655145"
             width="2.1655145"
             id="rect4313"
             style="fill:#ffffff;fill-opacity:1;stroke:#e48b4c;stroke-width:0.1;stroke-linecap:round;stroke-linejoin:miter;stroke-miterlimit:4;stroke-dasharray:none;stroke-dashoffset:0;stroke-opacity:1" />
          <rect
             style="fill:#ffffff;fill-opacity:1;stroke:#e48b4c;stroke-width:0.1;stroke-linecap:round;stroke-linejoin:miter;stroke-miterlimit:4;stroke-dasharray:none;stroke-dashoffset:0;stroke-opacity:1"
             id="rect4315"
             width="2.1655145"
             height="2.1655145"
             x="-230.92212"
             y="549.78607" />
          <rect
             y="549.78607"
             x="-227.60756"
             height="2.1655145"
             width="2.1655145"
             id="rect4317"
             style="fill:#ffffff;fill-opacity:1;stroke:#e48b4c;stroke-width:0.1;stroke-linecap:round;stroke-linejoin:miter;stroke-miterlimit:4;stroke-dasharray:none;stroke-dashoffset:0;stroke-opacity:1" />
          <rect
             style="fill:#ffffff;fill-opacity:1;stroke:#e48b4c;stroke-width:0.1;stroke-linecap:round;stroke-linejoin:miter;stroke-miterlimit:4;stroke-dasharray:none;stroke-dashoffset:0;stroke-opacity:1"
             id="rect4319"
             width="2.1655145"
             height="2.1655145"
             x="-224.20461"
             y="549.78607" />
          <rect
             y="549.78607"
             x="-220.89003"
             height="2.1655145"
             width="2.1655145"
             id="rect4321"
             style="fill:#ffffff;fill-opacity:1;stroke:#e48b4c;stroke-width:0.1;stroke-linecap:round;stroke-linejoin:miter;stroke-miterlimit:4;stroke-dasharray:none;stroke-dashoffset:0;stroke-opacity:1" />
          <rect
             style="fill:#ffffff;fill-opacity:1;stroke:#e48b4c;stroke-width:0.1;stroke-linecap:round;stroke-linejoin:miter;stroke-miterlimit:4;stroke-dasharray:none;stroke-dashoffset:0;stroke-opacity:1"
             id="rect4325"
             width="2.1655145"
             height="2.1655145"
             x="-234.23669"
             y="552.74707" />
          <rect
             y="552.74707"
             x="-230.92212"
             height="2.1655145"
             width="2.1655145"
             id="rect4327"
             style="fill:#ffffff;fill-opacity:1;stroke:#e48b4c;stroke-width:0.1;stroke-linecap:round;stroke-linejoin:miter;stroke-miterlimit:4;stroke-dasharray:none;stroke-dashoffset:0;stroke-opacity:1" />
          <rect
             style="fill:#ffffff;fill-opacity:1;stroke:#e48b4c;stroke-width:0.1;stroke-linecap:round;stroke-linejoin:miter;stroke-miterlimit:4;stroke-dasharray:none;stroke-dashoffset:0;stroke-opacity:1"
             id="rect4329"
             width="2.1655145"
             height="2.1655145"
             x="-227.60756"
             y="552.74707" />
          <rect
             y="552.74707"
             x="-224.20461"
             height="2.1655145"
             width="2.1655145"
             id="rect4331"
             style="fill:#ffffff;fill-opacity:1;stroke:#e48b4c;stroke-width:0.1;stroke-linecap:round;stroke-linejoin:miter;stroke-miterlimit:4;stroke-dasharray:none;stroke-dashoffset:0;stroke-opacity:1" />
          <rect
             style="fill:#ffffff;fill-opacity:1;stroke:#e48b4c;stroke-width:0.1;stroke-linecap:round;stroke-linejoin:miter;stroke-miterlimit:4;stroke-dasharray:none;stroke-dashoffset:0;stroke-opacity:1"
             id="rect4333"
             width="2.1655145"
             height="2.1655145"
             x="-220.89003"
             y="552.74707" />
          <g
             style="fill:#a05a2c;fill-opacity:0.21938776"
             clip-path="url(#clipPath4437)"
             id="g4368">
            <path
               id="rect4370"
               d="m -236.94325,547.66473 20.89752,0 0,11.11171 -20.89752,0 z"
               style="fill:#a05a2c;fill-opacity:0.21938776;stroke:none;stroke-width:25;stroke-linecap:round;stroke-linejoin:round;stroke-miterlimit:4;stroke-dasharray:none;stroke-dashoffset:0;stroke-opacity:1"
               inkscape:connector-curvature="0" />
            <g
               style="fill:#a05a2c;fill-opacity:0.21938776"
               transform="matrix(0.53642241,0,0,0.53642241,-103.871,253.01314)"
               id="g4372">
              <path
                 sodipodi:nodetypes="cccccc"
                 style="fill:#a05a2c;fill-opacity:0.21938776;fill-rule:evenodd;stroke:none;stroke-width:1px;stroke-linecap:butt;stroke-linejoin:miter;stroke-opacity:1"
                 d="m -228.61015,537.55971 8.19988,4.73859 -0.008,7.26048 -16.40359,0 0.002,-7.26048 z"
                 id="path4374"
                 inkscape:connector-curvature="0" />
            </g>
            <path
               inkscape:connector-curvature="0"
               id="path4376"
               d="m -226.5,540.02734 -5.39453,3.11524 0.5,0.86523 4.89453,-2.82617 4.75586,2.74609 0.5,-0.86523 -5.25586,-3.03516 z"
               style="color:#000000;font-style:normal;font-variant:normal;font-weight:normal;font-stretch:normal;font-size:medium;line-height:normal;font-family:sans-serif;text-indent:0;text-align:start;text-decoration:none;text-decoration-line:none;text-decoration-style:solid;text-decoration-color:#000000;letter-spacing:normal;word-spacing:normal;text-transform:none;direction:ltr;block-progression:tb;writing-mode:lr-tb;baseline-shift:baseline;text-anchor:start;white-space:normal;clip-rule:nonzero;display:inline;overflow:visible;visibility:visible;opacity:1;isolation:auto;mix-blend-mode:normal;color-interpolation:sRGB;color-interpolation-filters:linearRGB;solid-color:#000000;solid-opacity:1;fill:#a05a2c;fill-opacity:0.21938776;fill-rule:evenodd;stroke:none;stroke-width:1px;stroke-linecap:butt;stroke-linejoin:miter;stroke-miterlimit:4;stroke-dasharray:none;stroke-dashoffset:0;stroke-opacity:1;color-rendering:auto;image-rendering:auto;shape-rendering:auto;text-rendering:auto;enable-background:accumulate" />
            <path
               inkscape:connector-curvature="0"
               id="path4378"
               d="m -226.53711,537.25586 a 0.10001,0.10001 0 0 0 -0.0879,0.10156 l 0,3.44531 a 0.10001,0.10001 0 1 0 0.19922,0 l 0,-3.44531 a 0.10001,0.10001 0 0 0 -0.11133,-0.10156 z"
               style="color:#000000;font-style:normal;font-variant:normal;font-weight:normal;font-stretch:normal;font-size:medium;line-height:normal;font-family:sans-serif;text-indent:0;text-align:start;text-decoration:none;text-decoration-line:none;text-decoration-style:solid;text-decoration-color:#000000;letter-spacing:normal;word-spacing:normal;text-transform:none;direction:ltr;block-progression:tb;writing-mode:lr-tb;baseline-shift:baseline;text-anchor:start;white-space:normal;clip-rule:nonzero;display:inline;overflow:visible;visibility:visible;opacity:1;isolation:auto;mix-blend-mode:normal;color-interpolation:sRGB;color-interpolation-filters:linearRGB;solid-color:#000000;solid-opacity:1;fill:#a05a2c;fill-opacity:0.21938776;fill-rule:evenodd;stroke:none;stroke-width:0.2;stroke-linecap:round;stroke-linejoin:miter;stroke-miterlimit:4;stroke-dasharray:none;stroke-dashoffset:0;stroke-opacity:1;color-rendering:auto;image-rendering:auto;shape-rendering:auto;text-rendering:auto;enable-background:accumulate" />
            <path
               id="rect4380"
               d="m -226.54687,537.67468 1.71916,0 0,1.0625 -1.71916,0 z"
               style="fill:#a05a2c;fill-opacity:0.21938776;stroke:#e48b4c;stroke-width:0.2;stroke-linecap:round;stroke-linejoin:miter;stroke-miterlimit:4;stroke-dasharray:none;stroke-dashoffset:0;stroke-opacity:1"
               inkscape:connector-curvature="0" />
            <g
               style="fill:#a05a2c;fill-opacity:0.21938776"
               transform="translate(0.1875,-0.0625)"
               id="g4382">
              <path
                 id="circle4384"
                 d="m -225.11471,544.13037 a 1.5917445,1.5917445 0 0 1 -1.59174,1.59175 1.5917445,1.5917445 0 0 1 -1.59175,-1.59175 1.5917445,1.5917445 0 0 1 1.59175,-1.59174 1.5917445,1.5917445 0 0 1 1.59174,1.59174 z"
                 style="fill:#a05a2c;fill-opacity:0.21938776;stroke:#e48b4c;stroke-width:0.28297681;stroke-linecap:round;stroke-linejoin:miter;stroke-miterlimit:4;stroke-dasharray:none;stroke-dashoffset:0;stroke-opacity:1"
                 inkscape:connector-curvature="0" />
              <path
                 style="fill:#a05a2c;fill-opacity:0.21938776;fill-rule:evenodd;stroke:#e48b4c;stroke-width:0.1;stroke-linecap:butt;stroke-linejoin:miter;stroke-miterlimit:4;stroke-dasharray:none;stroke-opacity:1"
                 d="m -226.64982,543.26742 0,0.90598 0.54138,0.54138"
                 id="path4386"
                 inkscape:connector-curvature="0" />
            </g>
            <path
               id="rect4388"
               d="m -234.23669,549.78607 2.16551,0 0,2.16552 -2.16551,0 z"
               style="fill:#a05a2c;fill-opacity:0.21938776;stroke:#e48b4c;stroke-width:0.1;stroke-linecap:round;stroke-linejoin:miter;stroke-miterlimit:4;stroke-dasharray:none;stroke-dashoffset:0;stroke-opacity:1"
               inkscape:connector-curvature="0" />
            <path
               id="rect4390"
               d="m -230.92212,549.78607 2.16552,0 0,2.16552 -2.16552,0 z"
               style="fill:#a05a2c;fill-opacity:0.21938776;stroke:#e48b4c;stroke-width:0.1;stroke-linecap:round;stroke-linejoin:miter;stroke-miterlimit:4;stroke-dasharray:none;stroke-dashoffset:0;stroke-opacity:1"
               inkscape:connector-curvature="0" />
            <path
               id="rect4398"
               d="m -234.23669,552.74707 2.16551,0 0,2.16551 -2.16551,0 z"
               style="fill:#a05a2c;fill-opacity:0.21938776;stroke:#e48b4c;stroke-width:0.1;stroke-linecap:round;stroke-linejoin:miter;stroke-miterlimit:4;stroke-dasharray:none;stroke-dashoffset:0;stroke-opacity:1"
               inkscape:connector-curvature="0" />
          </g>
        </g>
      </g>
      <g
         id="g4674"
         class="pic why-cir">
        <g
           transform="matrix(0.52414256,0,0,0.52414256,673.59869,503.25616)"
           id="g4667">
          <rect
             style="fill:#e7c49c;fill-opacity:1;stroke:none;stroke-width:0.1;stroke-linecap:round;stroke-linejoin:miter;stroke-miterlimit:4;stroke-dasharray:none;stroke-dashoffset:0;stroke-opacity:1"
             id="rect4661"
             width="18"
             height="27"
             x="-391.36038"
             y="108.86221" />
          <path
             style="fill:#ffddb8;fill-opacity:1;fill-rule:evenodd;stroke:none;stroke-width:1px;stroke-linecap:butt;stroke-linejoin:miter;stroke-opacity:1"
             d="m -382.65328,118.86221 c 21.33105,-0.1473 26.5,-24.5 26.5,-24.5 5.33758,-1.11728 7.29841,-10.746609 4.30936,-13.247398 l -16.80936,-24.752602 -29.75,8.75 -10.65181,15.862056 c -3.57884,0.535986 1.43092,14.398387 2.75,11.75 0,0 2.32075,26.285244 23.65181,26.137944 z"
             id="path4663"
             inkscape:connector-curvature="0"
             sodipodi:nodetypes="zccccccz" />
          <path
             style="fill:#ffb002;fill-opacity:1;fill-rule:evenodd;stroke:none;stroke-width:1px;stroke-linecap:butt;stroke-linejoin:miter;stroke-opacity:1"
             d="m -404.40337,88.35131 c 0,0 2.29809,-13.08147 8.48528,-16.26346 6.18718,-3.18198 16.29037,-3.75627 19.79899,-4.06586 6.01041,-0.53033 7.6014,-5.12652 7.6014,-5.12652 6.2512,6.07191 10.24597,13.37461 11.31371,22.27386 1.63357,-1.90957 2.71563,-5.28981 5.65685,-3.71231 -0.52542,-7.22224 -2.97777,-14.58212 -10.07627,-22.27386 7.70646,-2.36659 6.93964,-7.68042 3.88909,-13.78858 -0.30656,4.23071 -2.40458,6.66995 -6.01041,7.60139 0,0 6.01041,-7.60139 -3.88909,-13.611801 3.0128,7.948059 0.0614,12.362529 -4.06586,12.727921 -19.21884,-5.84881 -37.45394,6.96311 -37.65344,28.99138 4.22299,-1.12203 4.35761,3.37745 4.94975,7.24784 z"
             id="path4665"
             inkscape:connector-curvature="0"
             sodipodi:nodetypes="csscccccccccc" />
        </g>
        <path
           sodipodi:nodetypes="cczcczc"
           inkscape:connector-curvature="0"
           id="path4672"
           d="m -701.875,143.11221 c 4.50969,8.38041 13.28817,8.53434 18.12877,-0.1526 0,0 13.50767,5.47679 17.92808,9.45268 4.42041,3.97589 10.38539,21.21655 10.38539,21.21655 l -72.97349,0.0771 c 0,0 4.97221,-14.75499 8.35134,-19.65159 3.37912,-4.89661 18.17991,-10.94214 18.17991,-10.94214 z"
           style="fill:#5fa276;fill-opacity:1;fill-rule:evenodd;stroke:none;stroke-width:1px;stroke-linecap:butt;stroke-linejoin:miter;stroke-opacity:1"
           transform="matrix(0.52414256,0,0,0.52414256,836.09869,492.85616)" />
      </g>
      <g
         id="g4561"
         class="pic why-cir">
        <g
           id="g4592"
           transform="matrix(0.50804456,0,0,0.50804456,351.74279,311.99879)"
           class="">
          <rect
             style="opacity:1;fill:#2a822a;fill-opacity:1;stroke:#c5c5c5;stroke-width:3.44851637;stroke-linecap:round;stroke-linejoin:miter;stroke-miterlimit:4;stroke-dasharray:none;stroke-dashoffset:0;stroke-opacity:1"
             id="rect4224"
             width="92.059959"
             height="61.048031"
             x="-322.08826"
             y="307.31339"
             rx="0"
             ry="0" />
          <rect
             y="351.46088"
             x="-341.21552"
             height="23.054468"
             width="21.74124"
             id="rect4578"
             style="fill:#e8c3a2;fill-opacity:1;stroke:none;stroke-width:0.1;stroke-linecap:round;stroke-linejoin:miter;stroke-miterlimit:4;stroke-dasharray:none;stroke-dashoffset:0;stroke-opacity:1" />
          <g
             transform="translate(-164.57911,1.4142135)"
             id="g4572">
            <g
               id="g4560"
               transform="translate(82.731493,-3.5355339)">
              <path
                 sodipodi:nodetypes="scszscs"
                 inkscape:connector-curvature="0"
                 id="path4553"
                 d="m -248.83703,358.48285 c 12.32842,-0.004 19.93196,-16.44294 24.07812,-27.68013 2.84539,2.42314 4.12108,-5.02508 4.05831,-7.13297 -0.26091,-8.76268 -4.76353,-35.25848 -30.35019,-34.72761 -25.58667,0.53087 -28.14669,24.7756 -28.01555,35.89493 0.0347,2.94068 1.0669,9.31483 5.12614,6.98743 4.67765,11.04937 13.16292,26.6626 25.10317,26.65835 z"
                 style="fill:#ffddb8;fill-opacity:1;fill-rule:evenodd;stroke:none;stroke-width:1px;stroke-linecap:butt;stroke-linejoin:miter;stroke-opacity:1" />
              <path
                 id="path4555"
                 d="m -251.05155,288.94257 c -22.09782,0.45849 -27.31371,18.5385 -27.98032,30.6726 l 0.40304,-0.0306 c 3.00317,-0.27911 4.73005,2.41946 5.39905,7.58673 2.62562,-25.9872 9.80569,-20.38307 23.63884,-21.01103 13.83314,-0.62796 21.0927,-3.8327 24.2208,19.55205 0.0183,-0.27401 0.15044,-8.02179 4.28185,-6.4534 -1.47813,-11.01275 -7.82082,-30.77572 -29.96326,-30.31632 z"
                 style="fill:#977366;fill-opacity:1;fill-rule:evenodd;stroke:none;stroke-width:1px;stroke-linecap:butt;stroke-linejoin:miter;stroke-opacity:1"
                 inkscape:connector-curvature="0" />
            </g>
            <path
               style="fill:#7e5e4d;fill-opacity:1;fill-rule:evenodd;stroke:none;stroke-width:1px;stroke-linecap:butt;stroke-linejoin:miter;stroke-opacity:1"
               d="m -179.23993,318.34823 c -4.74614,0.10318 -9.38911,0.61906 -9.38911,0.61906 0,0 -0.51589,2.99214 0.61906,2.88896 1.13495,-0.10318 1.23813,2.47625 1.54766,4.74614 0.33717,2.47264 3.81755,6.50016 8.35734,6.70651 4.53979,0.20635 8.04781,-3.71437 8.77005,-6.50015 0.72223,-2.78578 1.17514,-3.30167 2.56975,-3.30167 1.3946,0 1.84751,0.51589 2.56975,3.30167 0.72224,2.78578 4.23026,6.7065 8.77005,6.50015 4.53979,-0.20635 8.02016,-4.23387 8.35734,-6.70651 0.30953,-2.26989 0.4127,-4.84932 1.54765,-4.74614 1.13495,0.10318 0.61906,-2.88896 0.61906,-2.88896 0,0 -4.64296,-0.51588 -9.38911,-0.61906 -4.74614,-0.10318 -10.98835,2.16672 -11.659,2.16672 l -1.63149,0 c -0.67065,0 -6.91286,-2.2699 -11.659,-2.16672 z m 2.3908,1.42836 c 4.60691,0.0177 7.44824,1.61671 7.20627,4.76226 -0.2581,3.35526 -3.81755,7.42875 -7.73827,7.6351 -3.92073,0.20636 -7.01604,-2.99213 -7.2224,-7.22239 -0.20635,-4.23026 1.65084,-4.9525 6.80969,-5.15885 0.32243,-0.0128 0.63759,-0.0169 0.94471,-0.0161 z m 20.5806,0 c 0.30712,-8.3e-4 0.62228,0.003 0.94471,0.0161 5.15886,0.20636 7.01604,0.9286 6.80969,5.15885 -0.20636,4.23026 -3.30167,7.42875 -7.22239,7.2224 -3.92073,-0.20636 -7.48018,-4.27984 -7.73828,-7.6351 -0.24197,-3.14556 2.59937,-4.74454 7.20627,-4.76227 z"
               id="path4564"
               inkscape:connector-curvature="0" />
          </g>
          <path
             sodipodi:nodetypes="czcczcc"
             inkscape:connector-curvature="0"
             id="path4580"
             d="m -371.52483,402.50588 c 0,0 4.59629,-14.44553 9.63034,-21.44942 5.03405,-7.00388 15.61284,-11.67314 15.61284,-11.67314 l 33.41438,0.5107 c 0,0 7.19757,1.11889 14.95623,9.26556 7.75866,8.14668 10.14105,23.20038 10.14105,23.20038 z"
             style="fill:#48b0d3;fill-opacity:1;fill-rule:evenodd;stroke:none;stroke-width:1px;stroke-linecap:butt;stroke-linejoin:miter;stroke-opacity:1" />
          <path
             clip-path="url(#clipPath4588)"
             inkscape:connector-curvature="0"
             id="path4584"
             d="m -302.75,409.86221 -1.5,-15.25 9.75,-24.75 -25.25,-0.5 9.75,25.25 -0.75,18.75 z"
             style="fill:#224459;fill-opacity:1;fill-rule:evenodd;stroke:none;stroke-width:1px;stroke-linecap:butt;stroke-linejoin:miter;stroke-opacity:1"
             transform="matrix(0.82541626,0,0,0.82541626,-76.235044,64.58456)" />
          <path
             sodipodi:nodetypes="ccccccccc"
             inkscape:connector-curvature="0"
             id="path4582"
             d="m -346.97158,370.10623 -1.79459,17.01688 19.12833,-17.63594 19.39729,18.77822 -2.47625,-17.74645 -6.79717,-8.87323 -10.08846,8.02492 -11.62879,-8.43763 z"
             style="fill:#6bccef;fill-opacity:1;fill-rule:evenodd;stroke:none;stroke-width:1px;stroke-linecap:butt;stroke-linejoin:miter;stroke-opacity:1" />
          <g
             id="g4242"
             transform="translate(-61.999998,-1.9999999)">
            <path
               inkscape:connector-curvature="0"
               id="path4240"
               d="m -235.34538,396.2372 24.73909,8.04621 28.46197,-6.485 c -0.78934,-2.88223 -1.46277,-5.76445 0,-8.64668 l 3.12241,-6.96537 -2.28175,-9.00696 0.12009,-7.44574 -50.79922,-0.36028 -1.44111,4.56352 2.04157,7.44574 -0.96072,9.9677 -2.64205,1.32101 z"
               style="fill:#ececec;fill-rule:evenodd;stroke:none;stroke-width:1px;stroke-linecap:butt;stroke-linejoin:miter;stroke-opacity:1"
               sodipodi:nodetypes="ccccccccccccc" />
            <path
               inkscape:connector-curvature="0"
               id="path4238"
               d="m -222.73759,402.29863 c -12.19757,-4.01638 -12.84591,-4.41839 -13.4323,-8.32871 -0.30039,-2.00318 0.0192,-4.13436 0.9449,-6.29881 0.23065,-0.5394 0.0709,-0.83959 -0.52067,-0.97848 -0.61016,-0.14314 -0.21967,-0.48372 1.36972,-1.19437 2.19267,-0.9804 2.22316,-1.02401 2.22316,-3.17855 0,-1.89032 -0.22064,-2.39262 -1.63811,-3.72949 -0.90098,-0.84972 -1.63813,-1.64765 -1.63813,-1.77321 0,-0.12547 0.63184,-0.36701 1.40411,-0.53664 1.62632,-0.35719 1.63554,-0.38174 0.687,-1.82938 -1.77367,-2.70697 -1.2345,-8.48242 0.92391,-9.89667 0.66034,-0.43265 7.33705,-1.56696 17.72634,-3.01152 l 16.66702,-2.31742 10.19684,3.0835 c 5.60827,1.69594 10.27487,3.15411 10.37019,3.24044 0.0954,0.0863 -0.58919,0.87606 -1.52112,1.75499 -1.47694,1.39294 -1.69442,1.87847 -1.69442,3.7826 0,2.15549 0.0296,2.19765 2.22315,3.17194 l 2.22316,0.98742 -1.55543,0.47758 c -1.31442,0.40363 -1.49918,0.62873 -1.19248,1.45314 0.1996,0.53651 0.3666,2.38822 0.37106,4.11481 0.007,2.51705 -0.19774,3.4178 -1.03066,4.54437 -1.22668,1.6592 -1.27107,1.91102 -0.33675,1.91102 1.04348,0 0.87483,0.36794 -0.96321,2.10141 -1.51729,1.43099 -1.65241,1.76798 -1.5211,3.79325 0.13008,2.00563 0.28128,2.26674 1.54824,2.67318 1.45936,0.46819 2.71707,1.27395 2.43258,1.55844 -0.1887,0.1887 -32.85781,8.15233 -33.13796,8.07793 -0.10166,-0.0272 -5.1097,-1.67076 -11.12904,-3.65277 z m 11.54898,-3.16108 -0.13661,-3.5867 -4.68035,-1.5694 c -2.57418,-0.86314 -7.49514,-2.45121 -10.93542,-3.52901 -6.13314,-1.92142 -6.26847,-1.94182 -6.9406,-1.04537 -0.91578,1.2214 -0.59007,5.58215 0.49829,6.67148 0.66799,0.66856 19.8853,6.51898 21.72673,6.61434 0.45558,0.0236 0.571,-0.85315 0.46804,-3.55534 z m 14.83626,0.38589 12.63281,-3.17403 -0.12683,-1.60991 c -0.0696,-0.88548 0.0784,-2.30491 0.32911,-3.15434 0.39887,-1.35138 0.35671,-1.51315 -0.33723,-1.29439 -0.43619,0.13757 -3.9523,0.88737 -7.81356,1.66635 -3.86128,0.77898 -8.07357,1.70954 -9.36066,2.06793 -1.28708,0.35836 -3.50037,0.78618 -4.91838,0.95069 -1.41802,0.16448 -2.86608,0.47701 -3.21793,0.69447 -0.92857,0.57387 -1.35982,7.05905 -0.46819,7.04067 0.35638,-0.007 6.33269,-1.44171 13.28073,-3.18744 z m -8.18649,-11.29176 c 0,-2.63425 -0.15718,-3.33948 -0.81905,-3.67519 -1.05839,-0.53679 -25.31992,-5.46078 -25.58758,-5.19312 -0.11164,0.11164 -0.0876,1.47471 0.0534,3.02919 l 0.25626,2.82638 12.2294,3.09112 c 6.72615,1.70013 12.59795,3.11144 13.04845,3.13627 0.70596,0.0391 0.81907,-0.40494 0.81907,-3.21465 z m 11.03047,0.66505 c 12.94127,-3.5994 12.21988,-3.31836 12.80178,-4.9876 0.70075,-2.01022 0.63173,-4.703 -0.14795,-5.76924 -0.63111,-0.8631 -1.02591,-0.77373 -11.58382,2.62187 l -10.93041,3.51541 -0.13662,3.60715 c -0.0753,1.98391 0.0444,3.60714 0.26571,3.60714 0.22131,0 4.60043,-1.16763 9.73137,-2.59473 z m -15.80812,-12.2376 -0.13661,-3.59953 -10.9318,-3.52115 c -10.55028,-3.39823 -10.95457,-3.49002 -11.58385,-2.62947 -0.78185,1.0693 -0.84603,3.76073 -0.13815,5.79157 0.57396,1.64638 -0.39201,1.27725 13.76111,5.25855 4.37611,1.231 8.2287,2.25201 8.56129,2.26888 0.45569,0.023 0.57103,-0.85641 0.46803,-3.56885 z m 14.43289,0.47471 12.69745,-3.14828 0.25625,-2.82608 c 0.14104,-1.55432 0.16428,-2.91801 0.0521,-3.03036 -0.2567,-0.25667 -23.92216,4.52012 -25.35214,5.11725 -0.95032,0.39686 -1.05307,0.76037 -1.05307,3.72602 0,1.80744 0.15795,3.29154 0.35104,3.29799 0.19307,0.007 6.06485,-1.40498 13.04847,-3.13654 z"
               style="fill:#21215f;fill-opacity:1" />
          </g>
        </g>
      </g>
      <g
         transform="translate(0.39991,0)"
         inkscape:transform-center-y="-3.133124"
         inkscape:transform-center-x="5.8287293"
         id="circs-no-fill">
        <path
           style="fill:#00346f;fill-opacity:1;fill-rule:evenodd;stroke:none;stroke-width:1px;stroke-linecap:butt;stroke-linejoin:miter;stroke-opacity:1"
           d="m 357.43918,379.75558 c -26.81899,0 -48.64483,21.82583 -48.64483,48.64482 0,26.819 21.82584,48.64298 48.64483,48.64298 26.81899,0 48.64296,-21.82398 48.64296,-48.64298 0,-26.81899 -21.82397,-48.64482 -48.64296,-48.64482 z m 0,7.81894 c 22.59377,0 40.82588,18.23212 40.82588,40.82588 0,22.59378 -18.23211,40.82588 -40.82588,40.82588 -22.59376,0 -40.82588,-18.2321 -40.82588,-40.82588 0,-22.59376 18.23212,-40.82588 40.82588,-40.82588 z"
           id="path4277"
           inkscape:connector-curvature="0"
           inkscape:transform-center-x="5.8187466"
           inkscape:transform-center-y="-2.8500089"
           sodipodi:nodetypes="ssssssssss" />
        <path
           inkscape:transform-center-y="-2.8500089"
           inkscape:transform-center-x="5.8187466"
           inkscape:connector-curvature="0"
           id="parents-cir"
           d="m 281.98283,244.44923 c -28.76442,0 -52.17392,23.40766 -52.17393,52.17207 0,28.76442 23.40953,52.17208 52.17393,52.17208 7.2185,0 14.09785,-1.4747 20.35635,-4.1377 l 27.51103,35.84208 -17.18906,-41.7165 c 13.01429,-9.49683 21.49375,-24.85447 21.49375,-42.15996 0,-28.76441 -23.40765,-52.17207 -52.17207,-52.17207 z m 0,8.38486 c 24.23268,0 43.78721,19.55451 43.78721,43.78721 0,24.2327 -19.55453,43.78719 -43.78721,43.78721 -24.2327,0 -43.78907,-19.55451 -43.78906,-43.78721 0,-24.2327 19.55636,-43.78721 43.78906,-43.78721 z"
           style="fill:#00346f;fill-opacity:1;fill-rule:evenodd;stroke:none;stroke-width:1px;stroke-linecap:butt;stroke-linejoin:miter;stroke-opacity:1"
           sodipodi:nodetypes="ssscccsssssss"
           class="why-cir" />
        <path
           inkscape:transform-center-y="-2.8500089"
           inkscape:transform-center-x="5.8187466"
           inkscape:connector-curvature="0"
           id="ins-cir"
           d="m 508.35373,287.47013 c -33.7776,0 -61.26572,27.48812 -61.26572,61.26572 0,10.05428 2.4494,19.54251 6.76132,27.92295 l -41.17841,31.18858 47.49628,-21.34903 c 11.22661,14.29255 28.64722,23.50137 48.18653,23.50137 33.7776,0 61.26573,-27.48627 61.26573,-61.26387 0,-33.7776 -27.48813,-61.26572 -61.26573,-61.26572 z m 0,9.84697 c 28.45607,0 51.41875,22.96268 51.41875,51.41875 0,28.45607 -22.96268,51.41875 -51.41875,51.41875 -28.45607,0 -51.41875,-22.96268 -51.41875,-51.41875 0,-28.45607 22.96268,-51.41875 51.41875,-51.41875 z"
           style="fill:#00346f;fill-opacity:1;fill-rule:evenodd;stroke:none;stroke-width:1px;stroke-linecap:butt;stroke-linejoin:miter;stroke-opacity:1"
           sodipodi:nodetypes="sscccssssssss"
           class="why-cir" />
        <path
           inkscape:transform-center-y="-2.8500089"
           inkscape:transform-center-x="5.8187466"
           inkscape:connector-curvature="0"
           id="student-cir"
           d="m 393.40744,474.29357 41.42149,48.69677 c -7.57861,8.86892 -12.17003,20.3616 -12.17003,32.91231 0,27.97876 22.77017,50.74707 50.74893,50.74707 27.97876,0 50.74707,-22.76831 50.74707,-50.74707 0,-27.97877 -22.76831,-50.74707 -50.74707,-50.74707 -11.69555,0 -22.47356,3.98892 -31.06611,10.66338 z m 80.00039,39.01865 c 23.57083,0 42.59044,19.01961 42.59044,42.59043 0,23.57082 -19.0196,42.59229 -42.59044,42.59229 -23.57082,0 -42.59228,-19.02147 -42.59228,-42.59229 0,-23.57082 19.02147,-42.59043 42.59228,-42.59043 z"
           style="fill:#00346f;fill-opacity:1;fill-rule:evenodd;stroke:none;stroke-width:1px;stroke-linecap:butt;stroke-linejoin:miter;stroke-opacity:1"
           sodipodi:nodetypes="ccssssccsssss"
           class="why-cir" />
        <path
           inkscape:transform-center-y="-2.8500089"
           inkscape:transform-center-x="5.8187466"
           inkscape:connector-curvature="0"
           id="teacher-cir"
           d="m 196.34553,424.60968 c -34.45102,0 -62.48661,28.03561 -62.48662,62.48662 0,34.45102 28.0356,62.48662 62.48662,62.48662 34.451,0 62.48661,-28.0356 62.48661,-62.48662 0,-3.11849 -0.23755,-6.18168 -0.68095,-9.179 l 51.66924,-22.98184 -53.8791,13.37979 c -7.99426,-25.30333 -31.68702,-43.70557 -59.5958,-43.70557 z m 0,10.0418 c 29.02339,0 52.44482,23.42143 52.44482,52.44482 0,29.0234 -23.42143,52.44297 -52.44482,52.44297 -29.02341,0 -52.44297,-23.41957 -52.44297,-52.44297 0,-29.02339 23.41956,-52.44482 52.44297,-52.44482 z"
           style="fill:#00346f;fill-opacity:1;fill-rule:evenodd;stroke:none;stroke-width:1px;stroke-linecap:butt;stroke-linejoin:miter;stroke-opacity:1"
           sodipodi:nodetypes="sssscccssssss"
           class="why-cir" />
      </g>
    </g>
    <g
       id="g4233" />
    <g
       id="g4740"
       transform="matrix(0.2909375,0,0,0.2909375,376.1363,324.96334)"
       class="">
      <circle
         r="80"
         cy="354.36221"
         cx="-68"
         id="path4734"
         style="fill:#ffc300;fill-opacity:1;stroke:none;stroke-width:0.1;stroke-linecap:round;stroke-linejoin:miter;stroke-miterlimit:4;stroke-dasharray:none;stroke-dashoffset:0;stroke-opacity:1" />
      <circle
         r="47"
         cy="341.36221"
         cx="-81"
         id="path4736"
         style="fill:#ffa400;fill-opacity:0.47448982;stroke:none;stroke-width:0.1;stroke-linecap:round;stroke-linejoin:miter;stroke-miterlimit:4;stroke-dasharray:none;stroke-dashoffset:0;stroke-opacity:1" />
      <path
         inkscape:transform-center-y="-4.6009362"
         inkscape:transform-center-x="-0.053227778"
         d="m -39.975347,396.36218 -28.578831,-15.154 -28.685284,14.95152 5.580974,-31.86293 -23.083982,-22.66105 32.028061,-4.53837 14.418598,-28.95682 14.213457,29.05806 31.995167,4.76476 -23.243663,22.49723 z"
         inkscape:randomized="0"
         inkscape:rounded="0"
         inkscape:flatsided="false"
         sodipodi:arg2="1.5743323"
         sodipodi:arg1="0.94601378"
         sodipodi:r2="24.356033"
         sodipodi:r1="48.71207"
         sodipodi:cy="356.85229"
         sodipodi:cx="-68.468056"
         sodipodi:sides="5"
         id="path4738"
         style="fill:#ffffff;fill-opacity:1;stroke:none;stroke-width:0.1;stroke-linecap:round;stroke-linejoin:miter;stroke-miterlimit:4;stroke-dasharray:none;stroke-dashoffset:0;stroke-opacity:1"
         sodipodi:type="star" />
    </g>
  </g>
</svg>
